<?xml version="1.0" standalone="no"?>
<!DOCTYPE svg PUBLIC "-//W3C//DTD SVG 20010904//EN"
 "http://www.w3.org/TR/2001/REC-SVG-20010904/DTD/svg10.dtd">
<svg version="1.0" xmlns="http://www.w3.org/2000/svg"
 width="300.000000pt" height="300.000000pt" viewBox="0 0 300.000000 300.000000"
 preserveAspectRatio="xMidYMid meet">
<metadata>
Created by potrace 1.14, written by Peter Selinger 2001-2017
</metadata>
<g transform="translate(0.000000,300.000000) scale(0.100000,-0.100000)"
fill="#000000" stroke="none">
<path d="M1343 2699 c-6 -6 -31 -12 -55 -13 -24 -2 -49 -5 -54 -9 -6 -3 -25
-9 -43 -12 -18 -3 -38 -7 -44 -8 -6 -1 -17 -7 -24 -14 -7 -6 -22 -10 -32 -8
-11 2 -22 -3 -26 -13 -5 -14 -7 -14 -15 -2 -8 12 -10 12 -10 1 0 -8 -6 -11
-16 -7 -8 3 -13 2 -10 -3 5 -7 -12 -20 -34 -25 -3 -1 -15 -7 -27 -14 -13 -7
-23 -9 -23 -5 0 4 -10 -3 -21 -17 -11 -14 -18 -19 -14 -12 6 11 3 12 -14 3
-11 -7 -21 -16 -21 -21 0 -9 -39 -25 -53 -22 -5 1 -6 -1 -4 -5 2 -5 -5 -17
-16 -28 -11 -12 -17 -14 -13 -5 4 8 1 7 -7 -3 -9 -10 -19 -18 -24 -19 -4 0 -7
-4 -5 -9 2 -8 -13 -13 -31 -10 -5 1 -6 -2 -3 -7 7 -12 -33 -44 -46 -36 -7 4
-8 3 -4 -4 4 -7 2 -12 -3 -12 -6 0 -10 -6 -9 -12 2 -7 -3 -12 -10 -10 -6 1
-12 -5 -12 -13 0 -14 -13 -20 -34 -16 -5 1 -4 -4 2 -12 9 -11 7 -16 -13 -25
-14 -7 -24 -17 -23 -24 2 -7 -3 -12 -10 -10 -8 1 -11 -2 -7 -8 8 -13 -20 -42
-30 -32 -5 4 -5 1 0 -7 4 -7 4 -16 -1 -20 -17 -12 -49 -54 -36 -47 11 7 11 4
1 -12 -7 -12 -16 -19 -20 -16 -4 2 -10 -9 -14 -26 -4 -16 -11 -30 -15 -30 -5
0 -6 -7 -3 -17 4 -11 3 -14 -5 -9 -8 5 -10 2 -6 -8 3 -9 1 -16 -6 -16 -6 0 -8
-4 -5 -10 3 -5 2 -10 -4 -10 -6 0 -7 -7 -4 -17 5 -12 3 -14 -7 -8 -10 6 -12 4
-7 -8 3 -8 -1 -21 -9 -28 -10 -8 -11 -15 -4 -24 8 -10 8 -15 -1 -21 -8 -5 -10
-3 -5 7 4 8 1 6 -6 -3 -8 -9 -13 -31 -12 -48 2 -26 -1 -30 -14 -25 -13 5 -14
3 -5 -6 7 -7 9 -20 4 -33 -4 -11 -7 -36 -6 -54 1 -25 -3 -31 -14 -27 -10 4 -9
-1 5 -16 10 -12 14 -19 8 -16 -15 9 -22 -10 -18 -53 1 -19 -3 -41 -9 -49 -8
-10 -8 -13 -1 -8 7 4 11 -8 11 -38 0 -26 -4 -42 -9 -39 -6 4 -7 -1 -1 -12 5
-11 9 -26 8 -34 -1 -8 3 -20 7 -27 5 -6 5 -14 -2 -18 -6 -3 -8 -11 -4 -16 3
-5 10 -6 16 -3 6 4 6 -2 -1 -15 -7 -11 -8 -21 -3 -21 4 0 8 -9 9 -20 1 -13 -2
-18 -10 -13 -9 5 -9 3 -1 -8 18 -25 35 -71 23 -63 -8 4 -7 -1 1 -16 6 -12 9
-28 6 -36 -3 -8 -2 -13 2 -10 4 2 12 -7 19 -20 6 -13 7 -21 1 -18 -9 6 10 -34
22 -46 3 -3 6 -16 8 -29 1 -14 10 -33 18 -42 9 -10 13 -22 10 -27 -3 -6 1 -13
10 -16 8 -3 12 -10 9 -16 -3 -5 0 -10 7 -10 9 0 9 -3 -2 -10 -13 -8 -13 -10 2
-10 23 0 34 -20 17 -32 -11 -8 -11 -9 2 -5 16 5 45 -36 40 -56 -1 -5 3 -6 9
-2 9 6 14 -8 11 -28 -1 -5 3 -5 9 -2 7 4 14 -2 17 -14 3 -12 9 -21 14 -21 5 0
9 -7 9 -15 0 -8 7 -15 15 -15 9 0 20 -12 25 -26 6 -14 14 -23 19 -20 9 6 26
-22 23 -37 -1 -4 4 -6 10 -5 7 2 12 -2 11 -9 -2 -8 4 -10 14 -6 11 4 14 3 9
-5 -4 -7 -3 -12 2 -12 5 0 21 -12 36 -26 14 -15 26 -23 26 -19 0 5 8 -2 19
-13 10 -12 26 -22 35 -22 9 0 16 -6 16 -14 0 -8 11 -17 25 -20 16 -4 23 -11
19 -18 -5 -8 -2 -9 10 -5 18 7 50 -16 38 -27 -3 -4 1 -4 11 0 11 4 17 1 17 -7
0 -7 3 -10 6 -6 4 3 21 -1 38 -10 17 -10 37 -16 44 -15 6 2 12 -5 12 -15 0
-15 2 -16 10 -3 7 11 10 11 10 2 0 -7 4 -11 9 -7 5 3 12 1 16 -5 3 -5 14 -10
23 -10 9 0 30 -7 45 -15 15 -8 25 -10 22 -5 -3 6 1 7 9 4 9 -3 16 -9 16 -13 0
-4 15 -7 33 -6 17 0 35 -4 39 -10 5 -6 8 -5 8 3 0 7 5 10 10 7 6 -4 8 -10 6
-14 -3 -4 1 -8 9 -8 8 0 12 4 9 9 -3 4 0 8 5 8 6 0 11 -4 11 -10 0 -5 5 -10
11 -10 5 0 7 6 3 12 -6 10 -5 10 7 1 9 -8 59 -12 142 -12 70 0 131 -2 136 -5
5 -4 12 -2 16 4 4 6 11 7 17 4 7 -5 8 -2 3 6 -6 10 -4 12 8 7 9 -3 18 -1 21 6
3 9 5 8 5 -1 1 -9 6 -10 20 -3 10 6 21 8 24 4 4 -3 12 -1 19 5 7 5 29 13 48
16 19 4 40 8 45 10 6 2 22 6 38 11 15 4 27 12 27 17 0 6 8 4 17 -3 11 -10 14
-10 9 -2 -6 11 -2 14 19 13 3 -1 13 6 22 15 8 9 22 14 30 11 7 -3 16 1 19 9 4
8 10 12 15 9 5 -3 9 0 9 6 0 6 4 9 9 5 6 -3 14 3 20 12 5 10 13 17 18 17 16
-2 52 19 47 27 -3 5 2 6 10 3 9 -3 16 -1 16 4 0 6 9 14 20 17 11 4 18 10 15
15 -6 10 24 22 36 14 5 -3 8 -2 7 3 -5 15 92 104 104 97 6 -4 8 -3 5 3 -8 12
31 59 45 55 5 -1 7 2 4 7 -3 5 1 11 9 15 8 3 15 12 15 21 0 8 6 15 14 15 8 0
13 8 12 18 0 9 5 16 12 14 6 -1 11 1 10 5 -3 9 52 105 65 114 4 3 9 15 10 27
0 11 5 18 9 16 7 -5 12 12 6 19 -2 1 8 17 22 36 13 19 17 31 9 26 -10 -7 -9
-1 4 19 10 15 21 40 23 54 3 15 10 32 16 39 6 8 8 16 5 20 -4 3 -1 13 6 21 6
9 7 13 1 9 -6 -3 -11 0 -11 8 0 8 3 13 6 12 7 -2 9 3 21 43 6 21 5 30 -3 30
-7 0 -3 7 7 15 18 14 15 20 -7 16 -5 -1 -6 3 -2 9 3 6 10 8 15 5 4 -3 8 19 8
48 2 256 1 267 -9 267 -5 0 -9 5 -9 11 0 5 5 7 11 3 8 -5 8 -1 0 13 -5 11 -11
37 -13 59 -2 21 -7 42 -11 45 -4 3 -9 21 -10 40 -1 19 -8 40 -15 47 -7 8 -9
18 -6 23 3 6 -2 19 -11 29 -10 11 -15 26 -11 35 3 9 2 13 -4 10 -6 -4 -10 6
-10 21 0 15 -3 24 -7 21 -8 -9 -34 43 -27 54 3 5 0 9 -7 9 -7 0 -10 3 -6 6 3
4 -1 13 -9 21 -8 8 -11 19 -8 25 4 7 2 8 -4 4 -11 -6 -16 6 -13 27 0 4 -5 7
-13 7 -8 0 -18 5 -22 12 -4 7 -3 8 4 4 24 -14 11 7 -20 36 -18 17 -27 27 -20
23 6 -3 12 -2 12 4 0 5 -9 13 -20 16 -11 3 -20 13 -20 21 0 8 -4 12 -10 9 -5
-3 -10 -1 -10 5 0 15 -25 40 -40 40 -6 0 -9 3 -7 8 5 9 -60 71 -68 64 -3 -3
-5 2 -5 12 0 9 -5 14 -10 11 -6 -3 -13 1 -16 10 -4 9 -13 14 -21 11 -8 -3 -12
-2 -9 3 3 5 -1 12 -10 15 -9 3 -12 11 -8 18 4 7 4 10 -1 6 -4 -4 -14 -3 -22 3
-7 6 -13 8 -13 5 0 -4 -6 -1 -14 6 -8 7 -12 16 -9 20 2 4 -4 5 -13 1 -12 -4
-15 -3 -10 5 5 8 2 10 -8 6 -9 -3 -16 -1 -16 4 0 11 -38 28 -54 24 -5 -2 -6 3
-4 10 4 8 -4 14 -20 15 -15 0 -28 6 -30 12 -2 6 -15 11 -28 11 -14 0 -22 4
-19 10 3 6 -1 7 -9 4 -9 -4 -16 -1 -16 6 0 7 -7 10 -16 6 -8 -3 -22 1 -30 8
-8 8 -23 13 -33 11 -11 -2 -22 3 -25 12 -5 12 -9 13 -21 3 -11 -9 -15 -9 -15
-1 0 7 -4 9 -10 6 -5 -3 -10 -2 -10 3 0 5 -14 8 -31 6 -22 -3 -28 0 -23 9 5 8
2 7 -9 -2 -11 -9 -17 -10 -17 -2 0 6 -5 11 -11 11 -5 0 -7 -4 -4 -10 3 -6 -1
-7 -9 -4 -9 3 -16 11 -16 16 0 7 -5 6 -13 -1 -8 -6 -17 -8 -20 -4 -12 11 -217
10 -217 -2 0 -5 -4 -4 -9 4 -6 9 -11 10 -15 2 -4 -6 -12 -11 -17 -11 -6 0 -7
5 -4 10 8 13 2 13 -12 -1z m121 -81 c-5 -8 -2 -9 12 -4 21 9 29 9 59 3 11 -2
26 1 34 7 11 8 13 8 8 -1 -6 -9 4 -13 35 -13 36 -1 86 -4 121 -9 5 -1 5 -5 2
-11 -3 -5 0 -7 9 -4 8 3 23 1 34 -5 13 -7 23 -7 32 2 10 10 12 9 7 -5 -4 -12
-1 -16 13 -13 11 2 22 0 25 -5 3 -5 12 -7 19 -4 8 3 17 0 22 -7 5 -8 3 -10 -6
-4 -9 5 -11 4 -6 -4 6 -8 11 -9 20 -1 10 7 20 5 39 -10 14 -11 30 -20 36 -20
12 0 47 -18 71 -37 8 -6 20 -13 25 -15 6 -2 9 -6 8 -9 -1 -4 5 -6 15 -5 10 0
16 -5 14 -13 -2 -8 3 -11 13 -8 8 4 15 2 15 -3 0 -6 7 -10 15 -10 8 0 15 -8
15 -17 0 -15 2 -16 10 -3 8 13 10 12 10 -2 0 -10 6 -18 13 -18 7 0 24 -13 37
-30 14 -16 30 -29 37 -30 6 0 14 -9 18 -19 3 -11 15 -23 26 -26 14 -5 18 -12
14 -23 -3 -9 -3 -14 0 -10 7 7 50 -32 50 -45 0 -4 5 -11 10 -15 6 -4 16 -19
24 -34 8 -15 18 -25 23 -22 5 3 8 2 7 -3 -3 -13 12 -43 20 -39 4 3 8 -5 8 -17
1 -12 7 -23 13 -25 5 -2 8 -8 4 -13 -3 -5 0 -9 5 -9 6 0 11 -6 11 -12 1 -7 9
-31 20 -53 10 -22 16 -43 14 -46 -2 -4 4 -10 13 -13 15 -6 15 -8 3 -16 -12 -8
-12 -10 -1 -10 9 0 12 -8 9 -25 -3 -13 -2 -22 3 -20 11 7 19 -8 21 -42 1 -15
6 -34 12 -42 8 -11 8 -13 0 -8 -6 3 -11 0 -11 -8 0 -8 4 -12 8 -9 4 2 10 0 14
-6 3 -5 1 -10 -5 -10 -6 0 -9 -4 -5 -10 3 -5 6 -25 7 -44 1 -19 5 -33 10 -30
4 3 8 1 8 -5 0 -5 -5 -13 -10 -16 -7 -4 -7 -12 0 -25 13 -24 13 -40 0 -20 -6
9 -10 10 -10 3 0 -6 5 -15 10 -18 6 -4 7 -12 3 -18 -13 -21 -10 -52 6 -65 9
-8 10 -11 4 -7 -7 3 -13 3 -14 -2 0 -4 -2 -16 -4 -25 -2 -10 2 -18 8 -18 8 0
8 -3 -1 -9 -7 -4 -12 -12 -11 -17 1 -5 1 -22 0 -37 -1 -19 -5 -26 -13 -21 -10
5 -10 4 -1 -6 10 -11 10 -17 0 -29 -10 -12 -9 -13 2 -7 9 6 8 1 -3 -16 -9 -14
-13 -28 -9 -31 3 -4 -2 -17 -13 -29 -17 -20 -17 -21 -1 -9 17 14 17 13 5 -15
-7 -16 -15 -31 -19 -34 -3 -3 -9 -22 -13 -42 -4 -21 -11 -38 -16 -38 -6 0 -9
-3 -9 -7 4 -22 -3 -41 -20 -60 -11 -12 -17 -24 -14 -27 4 -3 1 -6 -6 -6 -7 0
-9 -5 -6 -10 3 -6 1 -10 -4 -10 -6 0 -11 -7 -11 -15 0 -8 -5 -15 -11 -15 -5 0
-7 -4 -4 -10 3 -5 1 -10 -5 -10 -6 0 -8 -5 -5 -10 6 -9 -7 -14 -27 -11 -4 0
-5 -6 -2 -14 4 -8 1 -15 -6 -15 -6 0 -8 -4 -5 -10 3 -6 -1 -10 -10 -10 -9 0
-14 -4 -11 -9 3 -4 -6 -18 -19 -31 -13 -13 -22 -27 -19 -31 3 -5 -3 -6 -12 -2
-12 4 -15 3 -10 -5 4 -8 -3 -16 -18 -22 -14 -5 -26 -12 -26 -15 0 -4 6 -3 13
1 6 4 -3 -8 -21 -25 -19 -17 -38 -28 -44 -25 -7 4 -8 2 -4 -5 4 -6 0 -14 -8
-17 -9 -3 -16 -14 -17 -23 0 -9 -3 -11 -5 -4 -4 8 -12 5 -25 -8 -11 -11 -25
-17 -31 -13 -7 4 -8 3 -4 -4 4 -7 1 -12 -8 -12 -9 0 -16 -4 -16 -10 0 -5 -7
-10 -15 -10 -8 0 -15 -5 -15 -11 0 -6 -7 -9 -15 -6 -8 4 -17 1 -21 -5 -5 -7
-2 -8 6 -3 9 5 11 4 6 -3 -4 -7 -14 -12 -23 -12 -9 0 -25 -8 -36 -18 -15 -12
-18 -13 -12 -2 7 12 6 13 -7 3 -8 -7 -19 -9 -23 -5 -5 4 -6 2 -2 -3 3 -6 -6
-15 -19 -22 -13 -6 -22 -7 -18 -2 3 5 0 9 -5 9 -6 0 -11 -4 -11 -10 0 -5 -7
-10 -15 -10 -8 0 -15 -6 -15 -12 0 -10 -2 -10 -9 0 -6 11 -10 11 -19 0 -6 -8
-26 -15 -44 -16 -18 -2 -36 -8 -40 -15 -4 -7 -8 -7 -8 -2 0 6 -9 11 -19 11
-11 0 -17 -4 -15 -8 3 -4 -12 -9 -33 -10 -21 0 -52 -2 -68 -3 -17 0 -37 -5
-44 -10 -10 -6 -12 -4 -7 6 4 8 0 5 -8 -5 -12 -15 -16 -16 -16 -5 0 8 -9 15
-20 15 -11 0 -20 -3 -20 -6 0 -4 -7 -7 -15 -7 -8 0 -15 5 -15 10 0 5 -8 3 -17
-4 -15 -12 -16 -12 -8 1 8 13 7 13 -8 1 -13 -10 -17 -10 -17 -1 0 9 -4 9 -17
-1 -14 -12 -16 -12 -8 0 6 11 1 13 -24 9 -17 -2 -31 -1 -31 3 0 5 -7 6 -15 3
-9 -4 -15 0 -15 7 0 11 -3 11 -10 -1 -9 -13 -10 -13 -10 0 0 13 -1 13 -10 0
-6 -10 -10 -11 -10 -2 0 7 -13 12 -31 12 -21 0 -28 4 -23 13 6 9 4 9 -8 -1
-11 -9 -18 -10 -23 -2 -3 5 -14 10 -25 10 -10 0 -21 7 -24 16 -3 8 -10 13 -15
10 -5 -4 -22 -1 -38 5 -15 6 -28 9 -29 7 0 -2 -8 5 -18 15 -12 11 -25 15 -38
11 -13 -4 -18 -2 -14 4 4 6 -3 16 -14 22 -11 6 -20 7 -20 3 0 -4 -5 0 -11 10
-5 9 -17 17 -25 17 -9 0 -12 5 -8 12 4 6 3 8 -4 4 -6 -3 -17 1 -25 9 -9 8 -20
15 -26 15 -6 0 -11 5 -11 10 0 6 -7 10 -15 10 -8 0 -19 9 -25 20 -6 11 -18 20
-28 20 -15 0 -15 2 -2 10 12 8 11 10 -7 10 -13 0 -23 6 -23 14 0 8 -9 18 -20
21 -18 6 -25 17 -21 38 1 5 -3 6 -9 2 -5 -3 -13 1 -16 9 -3 9 -13 16 -21 16
-8 0 -11 4 -8 10 3 5 2 10 -4 10 -6 0 -7 7 -4 17 4 11 3 14 -5 9 -7 -4 -16 2
-21 16 -5 13 -19 33 -30 45 -12 12 -21 29 -21 38 0 10 -5 13 -12 9 -7 -5 -9
-2 -6 8 4 8 -2 21 -12 28 -10 7 -16 19 -13 27 3 7 0 13 -6 13 -6 0 -11 9 -11
20 0 11 -5 20 -11 20 -5 0 -7 5 -4 10 3 6 1 10 -6 10 -7 0 -9 3 -6 6 3 4 1 16
-6 28 -21 39 -36 86 -23 79 7 -4 6 -1 -1 9 -7 8 -10 18 -6 21 3 4 2 7 -4 7 -6
0 -10 8 -10 17 0 37 -3 44 -16 37 -8 -5 -8 -2 2 9 10 13 11 20 2 30 -6 8 -12
39 -13 71 -1 32 -6 60 -10 62 -5 3 -3 14 2 25 7 12 7 19 1 19 -6 0 -8 7 -5 15
4 8 11 12 18 8 8 -4 8 -2 -1 7 -6 7 -9 19 -6 28 5 11 3 13 -7 7 -10 -6 -11 -4
-4 6 10 17 13 32 15 84 1 22 7 43 13 47 7 5 6 8 -3 8 -10 0 -11 3 -2 13 6 8 9
23 6 36 -2 12 0 19 6 16 5 -4 9 8 9 24 0 18 5 31 13 31 8 0 7 4 -3 10 -12 7
-12 10 -1 10 7 0 11 6 7 15 -3 8 0 15 6 15 6 0 8 3 5 7 -4 3 1 15 10 26 10 11
13 17 6 14 -8 -5 -8 -1 0 18 7 14 15 25 20 25 4 0 7 7 7 15 0 21 29 77 49 93
9 8 10 10 3 7 -11 -6 -11 -3 0 14 7 12 16 21 21 21 4 0 5 5 2 10 -3 6 -1 10 4
10 6 0 11 6 11 14 0 8 5 18 12 22 7 5 8 3 3 -6 -6 -9 -4 -11 4 -5 7 4 11 16 8
26 -3 11 -1 17 3 14 5 -3 14 4 20 15 6 11 16 17 22 14 7 -4 8 -3 4 5 -8 12 18
44 28 34 3 -4 6 -1 6 6 0 14 51 67 62 64 4 -2 10 6 13 17 6 18 17 25 38 21 5
-1 6 3 2 9 -3 5 2 13 12 17 10 4 35 20 55 36 23 18 42 26 50 21 7 -4 10 -4 6
1 -8 9 17 36 36 39 8 1 22 8 32 16 10 9 15 10 10 3 -4 -7 6 -5 23 4 16 10 27
22 23 28 -3 5 3 3 13 -5 10 -8 16 -10 12 -4 -4 7 0 14 8 18 8 3 15 0 15 -6 0
-7 7 -3 15 8 8 10 15 15 15 10 0 -5 7 -3 15 4 8 6 19 9 25 5 5 -3 10 -1 10 5
0 6 5 8 10 5 6 -4 17 -1 25 5 8 7 26 10 40 8 13 -3 22 -2 20 2 -8 14 22 19 35
7 8 -7 10 -8 7 -1 -6 10 3 12 105 17 14 1 30 5 34 10 11 11 16 8 8 -5z"/>
<path d="M1460 1721 c-8 -3 -15 -13 -15 -21 0 -8 -6 -14 -12 -12 -7 1 -13 -3
-13 -9 0 -7 -10 -9 -25 -7 -13 3 -22 1 -19 -3 2 -4 -5 -13 -16 -19 -11 -6 -20
-19 -20 -30 0 -13 -6 -18 -19 -15 -15 3 -18 -1 -14 -12 4 -10 2 -14 -5 -9 -11
6 -24 -22 -27 -57 -3 -27 20 -45 51 -41 38 4 72 -21 69 -50 -2 -18 1 -23 15
-19 14 4 18 0 15 -14 -2 -10 -4 -22 -4 -27 -1 -6 -8 -1 -16 10 -8 10 -15 15
-15 10 0 -6 -6 -1 -14 10 -10 13 -11 23 -4 32 6 7 8 15 4 19 -3 3 -6 0 -6 -8
-1 -10 -5 -8 -15 5 -8 11 -15 14 -15 8 0 -7 -7 -12 -15 -12 -8 0 -15 -4 -15
-10 0 -5 4 -10 9 -10 5 0 9 -10 10 -22 1 -43 4 -58 13 -58 5 0 7 -4 3 -9 -3
-5 -1 -12 5 -16 6 -4 7 -11 4 -17 -4 -7 -2 -8 4 -4 8 5 12 -1 12 -16 0 -18 2
-20 10 -8 6 10 10 11 10 3 0 -13 6 -14 89 -13 26 1 48 -4 52 -12 6 -10 9 -8 9
6 0 15 3 16 15 6 8 -7 15 -8 15 -3 0 6 11 9 24 8 13 -2 29 1 37 6 8 5 10 9 5
9 -5 0 -2 8 5 17 12 14 12 16 -1 9 -8 -4 -5 1 8 11 18 15 20 21 10 31 -11 11
-10 12 4 7 13 -5 16 -2 13 14 -2 12 0 21 4 21 4 0 8 7 8 15 0 8 -5 15 -11 15
-6 0 -4 5 4 10 10 6 11 10 3 10 -7 0 -15 -1 -16 -2 -2 -2 -11 3 -20 10 -12 10
-17 10 -23 1 -4 -8 -3 -9 4 -5 8 5 11 -1 9 -16 -2 -26 -18 -48 -29 -41 -5 2
-8 0 -8 -5 0 -13 -41 -2 -59 16 -12 12 -12 15 0 23 9 5 18 4 24 -4 6 -6 20
-13 33 -13 16 -1 20 2 14 8 -13 13 4 54 25 62 8 3 23 1 34 -4 13 -8 19 -7 19
0 0 6 4 9 9 5 26 -16 37 70 12 96 -9 9 -26 20 -39 23 -12 4 -20 12 -17 17 4 5
1 9 -5 9 -6 0 -9 3 -7 8 9 13 -26 34 -60 35 -7 0 -11 3 -11 6 3 14 -15 40 -23
35 -5 -3 -9 -1 -9 3 0 10 -58 13 -80 4z m80 -248 c2 -2 -2 -9 -10 -14 -11 -8
-9 -9 10 -4 24 6 24 5 6 -9 -21 -17 -36 -13 -36 10 0 8 -3 13 -7 13 -17 -3
-24 2 -18 11 6 10 42 5 55 -7z m-50 -25 c0 -6 -7 -7 -16 -4 -8 3 -12 2 -9 -4
9 -14 -3 -47 -19 -53 -8 -3 -13 0 -12 6 6 27 19 72 23 80 6 10 33 -11 33 -25z"/>
</g>
</svg>
